<?xml version="1.0" encoding="UTF-8"?>
<svg width="503px" height="486px" viewBox="0 0 503 486" version="1.1" xmlns="http://www.w3.org/2000/svg" xmlns:xlink="http://www.w3.org/1999/xlink">
    <!-- Generator: Sketch 52.5 (67469) - http://www.bohemiancoding.com/sketch -->
    <title>utility-icon</title>
    <desc>Created with Sketch.</desc>
    <g id="utility-icon" stroke="none" stroke-width="1" fill="none" fill-rule="evenodd">
        <g id="language" transform="translate(0.000000, 42.000000)" fill="#000000" fill-rule="nonzero">
            <g id="Group" transform="translate(237.000000, 135.000000)" fill-opacity="0.5">
                <g id="Path">
                    <path d="M16,0 L250,0 C258.836556,-1.623249e-15 266,7.163444 266,16 L266,252 C266,260.836556 258.836556,268 250,268 L16,268 C7.163444,268 1.082166e-15,260.836556 0,252 L0,16 C-1.082166e-15,7.163444 7.163444,1.623249e-15 16,0 Z M212.510204,100.499976 L212.510204,87.0999795 C212.510204,81.549519 208.019922,77.0499818 202.480879,77.0499818 L148.991147,77.0499818 L148.991147,63.649985 C148.991147,58.0995246 144.500865,53.5999874 138.961822,53.5999874 L125.589389,53.5999874 C120.050345,53.5999874 115.560064,58.0995246 115.560064,63.649985 L115.560064,77.0499818 L62.0703309,77.0499818 C56.5312877,77.0499818 52.041006,81.549519 52.041006,87.0999795 L52.041006,100.432976 C52.041006,105.983437 56.5312877,110.482974 62.0703309,110.482974 L157.59965,110.482974 C152.417833,122.459221 143.809329,134.762093 132.526338,146.65459 C127.270258,141.176356 122.410443,135.329758 117.983817,129.15922 C114.940857,124.873919 109.130381,123.636648 104.611384,126.31172 L98.5102113,129.912969 L93.0776604,133.170844 L92.542763,133.514219 C87.9852938,136.666872 86.8403873,142.924348 89.9852852,147.49209 C95.3153319,155.074786 101.180793,162.264991 107.536604,169.00746 C100.550797,174.435087 93.2682186,179.467908 85.7228221,184.082457 C81.0794319,186.906327 79.5232552,192.921095 82.2125584,197.649953 L88.8151973,209.316326 L88.9823527,209.601076 C90.3669373,211.878698 92.5981769,213.511458 95.1847081,214.139788 C97.7712394,214.768119 100.50094,214.34049 102.772674,212.951075 C113.051641,206.616462 122.932432,199.654886 132.359183,192.105705 C141.78039,199.66229 151.661647,206.624195 161.945691,212.951075 C162.037447,213.011813 162.132297,213.067722 162.229855,213.118575 C167.044337,215.860388 173.165316,214.173274 175.903168,209.349826 L182.505807,197.716953 C185.210018,193.009614 183.692449,187.001008 179.079121,184.149457 C171.556527,179.499806 164.275786,174.468256 157.26534,169.07446 C174.816658,150.23909 187.186159,130.314969 192.953021,110.549974 L202.480879,110.549974 C208.019922,110.549974 212.510204,106.050437 212.510204,100.499976 Z" id="Combined-Shape"></path>
                </g>
            </g>
            <path d="M16,0 L253,0 C261.836556,-1.623249e-15 269,7.163444 269,16 L269,252 C269,260.836556 261.836556,268 253,268 L16,268 C7.163444,268 -1.13523319e-14,260.836556 -1.24344979e-14,252 L0,16 C-1.082166e-15,7.163444 7.163444,1.623249e-15 16,0 Z M62.6620493,201.159078 L62.6200619,201.159078 C61.6163098,204.2307 62.1451123,207.595784 64.0429684,210.213875 C65.9408244,212.831966 68.9790973,214.38766 72.2183801,214.399949 L91.5325811,214.399949 C96.0095916,214.375893 99.944172,211.434558 101.223271,207.155576 L108.881772,180.673832 L159.552158,180.673832 L167.504571,207.239326 C168.787052,211.500436 172.726007,214.413524 177.186864,214.399949 L196.433885,214.399949 C201.98629,214.437143 206.522639,209.987842 206.578039,204.450452 C206.586073,203.330276 206.401453,202.21702 206.032203,201.159078 L157.629136,60.3418608 C156.159873,56.312551 152.329753,53.622269 148.030818,53.5999874 L120.671832,53.5999874 C116.354629,53.5646093 112.494496,56.2759729 111.073514,60.3418608 L62.6620493,201.159078 Z M141.16168,117.417472 L150.314932,148.823715 L118.320538,148.823715 L127.641739,117.417472 C130.580857,107.283725 134.191773,89.6124789 134.191773,89.6124789 L134.611647,89.6124789 C134.611647,89.6124789 138.222563,107.283725 141.16168,117.417472 Z" id="Combined-Shape"></path>
        </g>
    </g>
</svg>