<?xml version="1.0" encoding="UTF-8"?>
<svg width="200px" height="200px" viewBox="0 0 200 200" version="1.1" xmlns="http://www.w3.org/2000/svg" xmlns:xlink="http://www.w3.org/1999/xlink">
    <!-- Generator: Sketch 52.5 (67469) - http://www.bohemiancoding.com/sketch -->
    <title>icon</title>
    <desc>Created with Sketch.</desc>
    <defs>
        <linearGradient x1="12.7234946%" y1="80.6171539%" x2="94.4958323%" y2="20.1155003%" id="linearGradient-1">
            <stop stop-color="#30336B" offset="0%"></stop>
            <stop stop-color="#E056FD" offset="100%"></stop>
        </linearGradient>
    </defs>
    <g id="icon" stroke="none" stroke-width="1" fill="none" fill-rule="evenodd" transform="translate(0.000000, 0.000000)">
        <path d="M-1.13686838e-13,100 C-1.13686838e-13,0 0.397614314,1.22221211e-14 100.198807,0 C200,0 200,0 200,100 C200,200 200,200 100.198807,200 C0.397614314,200 -1.13686838e-13,200 -1.13686838e-13,100 Z" id="Combined-Shape" fill="url(#linearGradient-1)"></path>
        <g id="language" transform="translate(37.000000, 50.000000)" fill="#FFFFFF">
            <g id="Group" transform="translate(59.000000, 34.000000)">
                <path d="M6.53658537,0 L60.4634146,0 C64.073471,-6.63156605e-16 67,2.92652895 67,6.53658537 L67,60.4634146 C67,64.073471 64.073471,67 60.4634146,67 L6.53658537,67 C2.92652895,67 4.42104403e-16,64.073471 0,60.4634146 L0,6.53658537 C-4.42104403e-16,2.92652895 2.92652895,6.63156605e-16 6.53658537,0 Z" id="Rectangle" fill-opacity="0.21"></path>
                <path d="M53.5270063,25.1249941 C53.5270063,26.5126092 52.3959955,27.6374935 51.000823,27.6374935 L48.6009488,27.6374935 C47.1483934,32.5787423 44.0327673,37.5597724 39.6119464,42.268615 C41.3777355,43.617064 43.2116064,44.8749516 45.1063952,46.0373641 C46.2683989,46.7502521 46.6506436,48.2524036 45.9695078,49.4292383 L44.3064371,52.3374564 C43.6168278,53.5433186 42.0750773,53.9650971 40.8624072,53.2796437 C40.8378341,53.2669305 40.8139434,53.2529533 40.790832,53.2377687 C38.2004901,51.6560488 35.711602,49.9155725 33.3385912,48.0264262 C30.9641839,49.9137216 28.4754135,51.6541156 25.8863503,53.2377687 C25.3141464,53.5851225 24.6265904,53.6920296 23.9750957,53.534947 C23.3236009,53.3778645 22.761597,52.9696746 22.4128482,52.4002689 L22.3707452,52.3290814 L20.7076745,49.4124883 C20.0302936,48.2302738 20.4222629,46.7265819 21.5918387,46.0206141 C23.4923709,44.8669769 25.3267046,43.6087718 27.0862874,42.251865 C25.4853878,40.5662478 24.0079971,38.7686966 22.6654666,36.8730226 C21.8733306,35.731087 22.1617093,34.166718 23.3096433,33.3785546 L23.4443731,33.2927109 L24.8127224,32.4782423 L26.3494839,31.5779301 C27.4877275,30.9091621 28.9512685,31.2184799 29.7177284,32.2898049 C30.8327056,33.8324396 32.0567944,35.294089 33.3806942,36.6636476 C36.2226505,33.6905233 38.3909578,30.6148053 39.6961526,27.6207435 L15.6342563,27.6207435 C14.2390838,27.6207435 13.1080729,26.4958592 13.1080729,25.1082441 L13.1080729,21.7749949 C13.1080729,20.3873798 14.2390838,19.2624955 15.6342563,19.2624955 L29.1072341,19.2624955 L29.1072341,15.9124962 C29.1072341,14.5248811 30.2382449,13.3999968 31.6334174,13.3999968 L35.0016619,13.3999968 C36.3968344,13.3999968 37.5278452,14.5248811 37.5278452,15.9124962 L37.5278452,19.2624955 L51.000823,19.2624955 C52.3959955,19.2624955 53.5270063,20.3873798 53.5270063,21.7749949 L53.5270063,25.1249941 Z" id="Path" fill-rule="nonzero"></path>
            </g>
            <path d="M6.4969697,0 L60.5030303,0 C64.0912076,-6.63156605e-16 67,2.92652895 67,6.53658537 L67,60.4634146 C67,64.073471 64.0912076,67 60.5030303,67 L6.4969697,67 C2.90879241,67 -1.13247413e-13,64.073471 -1.13686838e-13,60.4634146 L-1.13686838e-13,6.53658537 C-1.14126263e-13,2.92652895 2.90879241,6.63156605e-16 6.4969697,0 Z M15.6072762,50.2897694 L15.5968184,50.2897694 C15.3468132,51.0576751 15.4785224,51.8989461 15.9512226,52.5534688 C16.4239228,53.2079915 17.1806674,53.5969149 17.9874776,53.5999874 L22.7980778,53.5999874 C23.9131696,53.5939732 24.8931581,52.8586394 25.2117442,51.788894 L27.1192518,45.1684581 L39.7397569,45.1684581 L41.7204693,51.8098315 C42.0398977,52.875109 43.0209758,53.6033811 44.1320441,53.5999874 L48.9259118,53.5999874 C50.3088528,53.6092857 51.4387242,52.4969604 51.4525227,51.1126129 C51.4545238,50.8325689 51.4085403,50.554255 51.316571,50.2897694 L39.2607885,15.0854652 C38.8948383,14.0781378 37.9408679,13.4055673 36.8701293,13.3999968 L30.0558095,13.3999968 C28.980521,13.3911523 28.0190751,14.0689932 27.6651503,15.0854652 L15.6072762,50.2897694 Z M35.1592289,29.3543681 L37.4390351,37.2059287 L29.4701712,37.2059287 L31.7918087,29.3543681 C32.5238566,26.8209312 33.4232297,22.4031197 33.4232297,22.4031197 L33.5278079,22.4031197 C33.5278079,22.4031197 34.427181,26.8209312 35.1592289,29.3543681 Z" id="Combined-Shape" fill-rule="nonzero"></path>
        </g>
    </g>
</svg>