<?xml version="1.0" encoding="UTF-8"?>
<svg width="207px" height="200px" viewBox="0 0 207 200" version="1.1" xmlns="http://www.w3.org/2000/svg" xmlns:xlink="http://www.w3.org/1999/xlink">
    <!-- Generator: Sketch 52.5 (67469) - http://www.bohemiancoding.com/sketch -->
    <title>icon-mask</title>
    <desc>Created with Sketch.</desc>
    <g id="icon-mask" stroke="none" stroke-width="1" fill="none" fill-rule="evenodd">
        <g id="language" transform="translate(0.000000, 18.000000)" fill="#FFFFFF">
            <g id="Group" transform="translate(97.000000, 55.000000)">
                <path d="M7,0 L103,-8.8817842e-16 C106.865993,-1.59834986e-15 110,3.13400675 110,7 L110,103 C110,106.865993 106.865993,110 103,110 L7,110 C3.13400675,110 -6.63197973e-15,106.865993 -7.10542736e-15,103 L-8.8817842e-16,7 C-1.36162605e-15,3.13400675 3.13400675,-6.39525592e-15 7,0 Z" id="Rectangle" fill-opacity="0.21"></path>
                <path d="M87.8801596,41.2499903 C87.8801596,43.5281643 86.0232762,45.3749893 83.7326945,45.3749893 L79.7926025,45.3749893 C77.4078101,53.4874874 72.292603,61.665298 65.0345389,69.3962336 C67.9335956,71.6101051 70.9444284,73.6752937 74.0552757,75.5837322 C75.963043,76.7541452 76.5906089,79.2203642 75.4723263,81.1524809 L72.7419117,85.9271672 C71.6097173,87.906941 69.0784851,88.5994131 67.0875342,87.4740419 C67.0471904,87.4531695 67.0079668,87.4302218 66.9700227,87.4052919 C62.7172226,84.8084383 58.6309884,81.9509399 54.7350004,78.8493564 C50.8367198,81.9479011 46.7506788,84.8052643 42.4999781,87.4052919 C41.5605389,87.9755742 40.4317155,88.1510934 39.3620973,87.8931966 C38.2924792,87.6352999 37.3697861,86.9651374 36.7972135,86.0302922 L36.7280891,85.9134172 L33.9976745,81.1249809 C32.8855567,79.1840317 33.5290884,76.7152836 35.4492873,75.5562322 C38.5695641,73.6622009 41.5811568,71.596491 44.4700241,69.3687336 C41.8416815,66.6013023 39.4161147,63.6500989 37.21196,60.5377982 C35.9114384,58.6629787 36.3848959,56.0946117 38.2695637,54.8006121 L38.4907618,54.6596746 L40.7373054,53.3224874 L43.2603468,51.8443628 C45.1291049,50.7463855 47.5319333,51.2542207 48.7903003,53.0131125 C50.62086,55.5457964 52.630558,57.9455193 54.8041248,60.1940483 C59.4700232,55.3127995 63.0299308,50.2631131 65.1727878,45.3474893 L25.668182,45.3474893 C23.3776002,45.3474893 21.5207168,43.5006643 21.5207168,41.2224903 L21.5207168,35.7499916 C21.5207168,33.4718175 23.3776002,31.6249925 25.668182,31.6249925 L47.7879962,31.6249925 L47.7879962,26.1249938 C47.7879962,23.8468198 49.6448797,21.9999948 51.9354614,21.9999948 L57.465415,21.9999948 C59.7559968,21.9999948 61.6128802,23.8468198 61.6128802,26.1249938 L61.6128802,31.6249925 L83.7326945,31.6249925 C86.0232762,31.6249925 87.8801596,33.4718175 87.8801596,35.7499916 L87.8801596,41.2499903 Z" id="Path" fill-rule="nonzero"></path>
            </g>
            <path d="M6.60223048,0 L104.39777,0 C108.044081,-6.68754271e-16 111,2.95123161 111,6.5917603 L111,103.40824 C111,107.048768 108.044081,110 104.39777,110 L6.60223048,110 C2.95591927,110 -4.68441947e-15,107.048768 -5.13096381e-15,103.40824 L0,6.5917603 C-4.46544335e-16,2.95123161 2.95591927,6.68754271e-16 6.60223048,0 Z M25.8568308,82.565293 L25.8395051,82.565293 C25.4253174,83.8260338 25.6435222,85.2072249 26.4266524,86.2818144 C27.2097826,87.356404 28.4634937,87.9949349 29.8001494,87.9999792 L37.7699498,87.9999792 C39.6173408,87.9901053 41.2409037,86.7828408 41.7687105,85.0265424 L44.9289096,74.15717 L65.8375077,74.15717 L69.1189864,85.0609174 C69.6481888,86.8098805 71.2735569,88.0055511 73.114282,87.9999792 L81.0563614,87.9999792 C83.3475024,88.0152452 85.2193789,86.1890395 85.2422392,83.9162302 C85.2455544,83.4564565 85.1693727,82.9995231 85.0170057,82.565293 L65.0439928,24.7671817 C64.4377171,23.1133605 62.8572588,22.0091403 61.0833486,21.9999948 L49.793953,21.9999948 C48.0125049,21.985474 46.4196617,23.0983471 45.8333087,24.7671817 L25.8568308,82.565293 Z M58.2488717,48.1937386 L62.0258641,61.0843606 L48.8237165,61.0843606 L52.6700114,48.1937386 C53.8828071,44.0343646 55.3728133,36.7812413 55.3728133,36.7812413 L55.5460698,36.7812413 C55.5460698,36.7812413 57.036076,44.0343646 58.2488717,48.1937386 Z" id="Combined-Shape" fill-rule="nonzero"></path>
        </g>
    </g>
</svg>