<?xml version="1.0" encoding="UTF-8"?>
<svg width="503px" height="486px" viewBox="0 0 503 486" version="1.1" xmlns="http://www.w3.org/2000/svg" xmlns:xlink="http://www.w3.org/1999/xlink">
    <!-- Generator: Sketch 52.5 (67469) - http://www.bohemiancoding.com/sketch -->
    <title>Artboard</title>
    <desc>Created with Sketch.</desc>
    <defs>
        <linearGradient x1="12.7234946%" y1="80.6171539%" x2="94.4958323%" y2="20.1155003%" id="linearGradient-1">
            <stop stop-color="#30336B" offset="0%"></stop>
            <stop stop-color="#E056FD" offset="100%"></stop>
        </linearGradient>
    </defs>
    <g id="Artboard" stroke="none" stroke-width="1" fill="none" fill-rule="evenodd">
        <path d="M2.84217094e-14,243 C2.84217094e-14,8.52651283e-14 1,1.14964883e-13 252,8.52651283e-14 C503,8.52651283e-14 503,8.52651283e-14 503,243 C503,486 503,486 252,486 C1,486 2.84217094e-14,486 2.84217094e-14,243 Z" id="Combined-Shape" fill="url(#linearGradient-1)"></path>
        <g id="language" transform="translate(97.000000, 120.000000)" fill="#FFFFFF">
            <g id="Group" transform="translate(145.000000, 83.000000)">
                <rect id="Rectangle" fill-opacity="0.21" x="0" y="0" width="164" height="164" rx="16"></rect>
                <path d="M131.021329,61.4999855 C131.021329,64.8965359 128.252885,67.649984 124.837835,67.649984 L118.963517,67.649984 C115.408008,79.7449812 107.781699,91.9373533 96.9605853,103.463476 C101.282815,106.764157 105.771693,109.843165 110.409684,112.688473 C113.253991,114.433453 114.189635,118.110361 112.522377,120.990971 L108.451577,128.109595 C106.763579,131.061257 102.989741,132.09367 100.021415,130.415844 C99.9612656,130.384725 99.9027868,130.350512 99.8462156,130.313344 C93.5056773,126.441672 87.4134737,122.181401 81.6049097,117.557222 C75.7929277,122.176871 69.701012,126.43694 63.3636038,130.313344 C61.9629853,131.163583 60.2800122,131.425267 58.6853088,131.040766 C57.0906053,130.656265 55.7149539,129.657114 54.8613002,128.263345 L54.7582419,128.089095 L50.687442,120.949971 C49.0293754,118.056193 49.9888227,114.375514 52.8516648,112.647473 C57.5037137,109.823645 61.9937247,106.743859 66.3007632,103.422476 C62.3821433,99.2964871 58.7658437,94.8965111 55.4796495,90.2563537 C53.5406899,87.4611683 54.2465721,83.6319666 57.0564404,81.7027307 L57.3862267,81.4926058 L60.735619,79.4989812 L64.4972443,77.2952318 C67.2833927,75.6582474 70.8657914,76.4153835 72.7419023,79.0377314 C75.4711003,82.8137328 78.4673774,86.3915015 81.7079679,89.7438538 C88.6643982,82.4663555 93.9718968,74.9377323 97.1667018,67.6089841 L38.2689258,67.6089841 C34.8538767,67.6089841 32.0854323,64.8555359 32.0854323,61.4589855 L32.0854323,53.2999874 C32.0854323,49.903437 34.8538767,47.1499889 38.2689258,47.1499889 L71.247558,47.1499889 L71.247558,38.9499908 C71.247558,35.5534404 74.0160024,32.7999923 77.4310516,32.7999923 L85.6757096,32.7999923 C89.0907588,32.7999923 91.8592032,35.5534404 91.8592032,38.9499908 L91.8592032,47.1499889 L124.837835,47.1499889 C128.252885,47.1499889 131.021329,49.903437 131.021329,53.2999874 L131.021329,61.4999855 Z" id="Path" fill-rule="nonzero"></path>
            </g>
            <path d="M16,0 L149,0 C157.836556,-1.623249e-15 165,7.163444 165,16 L165,148 C165,156.836556 157.836556,164 149,164 L16,164 C7.163444,164 1.082166e-15,156.836556 0,148 L0,16 C-1.082166e-15,7.163444 7.163444,1.623249e-15 16,0 Z M38.4358295,123.097346 L38.4100752,123.097346 C37.7943908,124.976996 38.1187492,127.036226 39.2828616,128.638342 C40.4469741,130.240457 42.3105987,131.192448 44.2975194,131.199969 L56.14452,131.199969 C58.8906417,131.185248 61.304046,129.385326 62.0886238,126.766845 L66.786217,110.561599 L97.8665656,110.561599 L102.744439,126.818095 C103.531091,129.42564 105.947179,131.208276 108.683392,131.199969 L120.489186,131.199969 C123.894936,131.222729 126.677455,128.500023 126.711437,125.11147 C126.716365,124.42599 126.603122,123.744744 126.37663,123.097346 L96.6870164,36.9256163 C95.7857957,34.4599193 93.4364658,32.8136273 90.7995722,32.7999923 L74.0180383,32.7999923 C71.3699397,32.778343 69.0021999,34.4375357 68.1305941,36.9256163 L38.4358295,123.097346 Z M86.5861607,71.8524831 L92.2006088,91.0712285 L72.5757947,91.0712285 L78.2932602,71.8524831 C80.0960647,65.6512345 82.3109387,54.8374871 82.3109387,54.8374871 L82.5684822,54.8374871 C82.5684822,54.8374871 84.7833562,65.6512345 86.5861607,71.8524831 Z" id="Combined-Shape" fill-rule="nonzero"></path>
        </g>
    </g>
</svg>