<?xml version="1.0" encoding="UTF-8"?>
<svg width="207px" height="200px" viewBox="0 0 207 200" version="1.1" xmlns="http://www.w3.org/2000/svg" xmlns:xlink="http://www.w3.org/1999/xlink">
    <!-- Generator: Sketch 52.5 (67469) - http://www.bohemiancoding.com/sketch -->
    <title>icon-mask-dark</title>
    <desc>Created with Sketch.</desc>
    <g id="icon-mask-dark" stroke="none" stroke-width="1" fill="none" fill-rule="evenodd">
        <g id="language" transform="translate(0.000000, 17.000000)" fill="#000000" fill-rule="nonzero">
            <g id="Group" transform="translate(98.000000, 56.000000)" fill-opacity="0.5">
                <g id="Path">
                    <path d="M6.55639098,0 L102.443609,0 C106.064604,-6.66258919e-16 109,2.94021955 109,6.56716418 L109,103.432836 C109,107.05978 106.064604,110 102.443609,110 L6.55639098,110 C2.93539623,110 4.43443963e-16,107.05978 0,103.432836 L0,6.56716418 C-4.43443963e-16,2.94021955 2.93539623,6.66258919e-16 6.55639098,0 Z M87.0812491,41.2499903 L87.0812491,35.7499916 C87.0812491,33.4718175 85.2412464,31.6249925 82.9714881,31.6249925 L61.0527631,31.6249925 L61.0527631,26.1249938 C61.0527631,23.8468198 59.2127604,21.9999948 56.9430021,21.9999948 L51.4633209,21.9999948 C49.1935626,21.9999948 47.3535599,23.8468198 47.3535599,26.1249938 L47.3535599,31.6249925 L25.4348349,31.6249925 C23.1650766,31.6249925 21.3250739,33.4718175 21.3250739,35.7499916 L21.3250739,41.2224903 C21.3250739,43.5006643 23.1650766,45.3474893 25.4348349,45.3474893 L64.5803079,45.3474893 C62.4569314,50.2631131 58.9293866,55.3127995 54.3059055,60.1940483 C52.1520984,57.9455193 50.1606703,55.5457964 48.3467521,53.0131125 C47.0998248,51.2542207 44.7188403,50.7463855 42.8670709,51.8443628 L40.3669663,53.3224874 L38.1408458,54.6596746 L37.9216585,54.8006121 C36.0541242,56.0946117 35.5849707,58.6629787 36.8736695,60.5377982 C39.0577864,63.6500989 41.4613026,66.6013023 44.0657512,69.3687336 C41.2031463,71.596491 38.2189317,73.6622009 35.1270211,75.5562322 C33.2242785,76.7152836 32.5865971,79.1840317 33.6886048,81.1249809 L36.3941974,85.9134172 L36.4626934,86.0302922 C37.0300608,86.9651374 37.9443657,87.6352999 39.0042601,87.8931966 C40.0641545,88.1510934 41.1827158,87.9755742 42.1136147,87.4052919 C46.3256726,84.8052643 50.3745678,81.9479011 54.2374095,78.8493564 C58.0979794,81.9509399 62.147066,84.8084383 66.3612043,87.4052919 C66.3988034,87.4302218 66.4376705,87.4531695 66.4776475,87.4740419 C68.4504988,88.5994131 70.9587199,87.906941 72.0806216,85.9271672 L74.7862142,81.1524809 C75.8943307,79.2203642 75.2724699,76.7541452 73.3820459,75.5837322 C70.299479,73.6752937 67.3160175,71.6101051 64.4433159,69.3962336 C71.6353975,61.665298 76.7041027,53.4874874 79.0672152,45.3749893 L82.9714881,45.3749893 C85.2412464,45.3749893 87.0812491,43.5281643 87.0812491,41.2499903 Z" id="Combined-Shape"></path>
                </g>
            </g>
            <path d="M6.60223048,0 L104.39777,0 C108.044081,-6.66258919e-16 111,2.94021955 111,6.56716418 L111,103.432836 C111,107.05978 108.044081,110 104.39777,110 L6.60223048,110 C2.95591927,110 -4.68441947e-15,107.05978 -5.13096381e-15,103.432836 L0,6.56716418 C-4.46544335e-16,2.94021955 2.95591927,6.66258919e-16 6.60223048,0 Z M25.8568308,82.565293 L25.8395051,82.565293 C25.4253174,83.8260338 25.6435222,85.2072249 26.4266524,86.2818144 C27.2097826,87.356404 28.4634937,87.9949349 29.8001494,87.9999792 L37.7699498,87.9999792 C39.6173408,87.9901053 41.2409037,86.7828408 41.7687105,85.0265424 L44.9289096,74.15717 L65.8375077,74.15717 L69.1189864,85.0609174 C69.6481888,86.8098805 71.2735569,88.0055511 73.114282,87.9999792 L81.0563614,87.9999792 C83.3475024,88.0152452 85.2193789,86.1890395 85.2422392,83.9162302 C85.2455544,83.4564565 85.1693727,82.9995231 85.0170057,82.565293 L65.0439928,24.7671817 C64.4377171,23.1133605 62.8572588,22.0091403 61.0833486,21.9999948 L49.793953,21.9999948 C48.0125049,21.985474 46.4196617,23.0983471 45.8333087,24.7671817 L25.8568308,82.565293 Z M58.2488717,48.1937386 L62.0258641,61.0843606 L48.8237165,61.0843606 L52.6700114,48.1937386 C53.8828071,44.0343646 55.3728133,36.7812413 55.3728133,36.7812413 L55.5460698,36.7812413 C55.5460698,36.7812413 57.036076,44.0343646 58.2488717,48.1937386 Z" id="Combined-Shape"></path>
        </g>
    </g>
</svg>